<svg xmlns="http://www.w3.org/2000/svg" width="24" height="24" fill="none"><path fill="#1C2436" d="M19.763 7.154a6.405 6.405 0 0 1-1.835.503 3.205 3.205 0 0 0 1.405-1.768 6.385 6.385 0 0 1-2.028.775 3.195 3.195 0 0 0-5.444 2.914A9.07 9.07 0 0 1 5.276 6.24a3.194 3.194 0 0 0 .988 4.266 3.185 3.185 0 0 1-1.446-.4v.04a3.197 3.197 0 0 0 2.563 3.132 3.217 3.217 0 0 1-1.444.055 3.197 3.197 0 0 0 2.985 2.22 6.411 6.411 0 0 1-4.73 1.322 9.037 9.037 0 0 0 4.897 1.436c5.876 0 9.09-4.868 9.09-9.09 0-.137-.004-.277-.01-.412a6.49 6.49 0 0 0 1.594-1.654v-.001z"/></svg>