<svg xmlns="http://www.w3.org/2000/svg" width="40" height="40" fill="none"><g clip-path="url(#a)"><path fill="#16171C" d="M20 39.165a18.295 18.295 0 0 1-7.283-1.506 18.578 18.578 0 0 1-3.179-1.767 18.928 18.928 0 0 1-2.769-2.34 19.222 19.222 0 0 1-4.01-6.093 19.4 19.4 0 0 1-1.09-3.597 19.765 19.765 0 0 1 0-7.725 19.315 19.315 0 0 1 2.815-6.853A19.18 19.18 0 0 1 6.77 6.447a18.961 18.961 0 0 1 2.77-2.34c1-.692 2.069-1.286 3.178-1.767A18.291 18.291 0 0 1 20 .834a18.291 18.291 0 0 1 7.283 1.506 18.578 18.578 0 0 1 3.178 1.767 19 19 0 0 1 2.77 2.34 19.22 19.22 0 0 1 4.01 6.092 19.406 19.406 0 0 1 1.09 3.598 19.762 19.762 0 0 1 0 7.725 19.316 19.316 0 0 1-2.816 6.853 18.988 18.988 0 0 1-5.054 5.177c-1 .692-2.07 1.286-3.178 1.767A18.295 18.295 0 0 1 20 39.165zM20 .843C9.687.843 1.297 9.437 1.297 20S9.687 39.157 20 39.157c10.313 0 18.703-8.594 18.703-19.157C38.703 9.436 30.313.843 20 .843z"/><path fill="#16171C" d="M21.033 38.539c-1.995 0-3.977-.33-5.907-.98a19.448 19.448 0 0 1-6.472-3.709 19.955 19.955 0 0 1-4.689-5.884 19.543 19.543 0 0 1-2.125-6.884 18.417 18.417 0 0 1 .534-7.043 17.225 17.225 0 0 1 3.29-6.36 16.745 16.745 0 0 1 5.543-4.422 17.242 17.242 0 0 1 6.678-1.762c2.359-.14 4.71.179 6.989.949a19.446 19.446 0 0 1 6.472 3.707 19.96 19.96 0 0 1 4.688 5.885 19.542 19.542 0 0 1 2.126 6.884 18.417 18.417 0 0 1-.534 7.043 17.226 17.226 0 0 1-3.29 6.36 16.744 16.744 0 0 1-5.543 4.422 17.242 17.242 0 0 1-6.679 1.762c-.36.021-.72.032-1.081.032zm-2.062-37.06c-.361 0-.723.01-1.085.032-4.846.288-9.183 2.482-12.21 6.178-3.029 3.696-4.385 8.451-3.82 13.39.564 4.94 2.982 9.47 6.808 12.759 3.646 3.134 8.064 4.675 12.378 4.675 5.03 0 9.917-2.094 13.282-6.201 6.25-7.63 4.91-19.36-2.989-26.149-3.54-3.043-7.894-4.685-12.364-4.685z"/><path fill="#16171C" d="M22.091 38.307c-.848 0-1.706-.066-2.57-.197-2.273-.346-4.476-1.13-6.549-2.328a20.802 20.802 0 0 1-5.681-4.859 21.32 21.32 0 0 1-3.685-6.575 19.832 19.832 0 0 1-1.1-7.009c.061-2.352.553-4.579 1.46-6.62a15.213 15.213 0 0 1 4.002-5.406 14.764 14.764 0 0 1 5.893-3.098c2.12-.56 4.347-.67 6.619-.324 2.272.345 4.475 1.129 6.548 2.327a20.809 20.809 0 0 1 5.682 4.859 21.32 21.32 0 0 1 3.684 6.575 19.834 19.834 0 0 1 1.102 7.009c-.063 2.352-.554 4.58-1.462 6.62a15.214 15.214 0 0 1-4.002 5.407 14.764 14.764 0 0 1-5.893 3.097 15.783 15.783 0 0 1-4.047.522zm-4.199-36.59c-3.703 0-7.152 1.245-9.91 3.614-6.997 6.015-7.3 17.489-.674 25.577 6.627 8.088 17.71 9.776 24.709 3.761 6.998-6.014 7.3-17.488.674-25.577-3.21-3.918-7.548-6.467-12.215-7.177a17.191 17.191 0 0 0-2.584-.198z"/><path fill="#16171C" d="M22.635 38.42c-1.83 0-3.686-.353-5.528-1.052-2.095-.795-4.066-1.998-5.858-3.575-1.855-1.633-3.436-3.597-4.7-5.839a22.832 22.832 0 0 1-2.587-7.088c-.437-2.379-.469-4.728-.093-6.984.375-2.255 1.138-4.304 2.269-6.088 1.17-1.847 2.684-3.328 4.5-4.402a12.97 12.97 0 0 1 5.972-1.79c2.074-.111 4.187.236 6.282 1.03 2.095.795 4.066 1.998 5.858 3.575 1.855 1.633 3.436 3.597 4.7 5.839a22.836 22.836 0 0 1 2.587 7.088c.437 2.379.469 4.728.093 6.984-.375 2.256-1.138 4.304-2.269 6.088-1.17 1.847-2.684 3.328-4.5 4.402a12.969 12.969 0 0 1-5.972 1.79c-.25.014-.502.02-.754.02v.001zM17.342 1.618c-2.335 0-4.62.578-6.688 1.801C7.069 5.54 4.67 9.258 3.9 13.888c-.77 4.631.18 9.621 2.677 14.05 5.153 9.143 15.367 13.02 22.769 8.642 7.401-4.377 9.23-15.375 4.077-24.518C29.71 5.473 23.365 1.62 17.342 1.62z"/><path fill="#16171C" d="M22.483 38.742c-.62 0-1.246-.05-1.878-.149-1.944-.304-3.862-1.063-5.7-2.254-1.838-1.19-3.504-2.753-4.952-4.645-1.5-1.96-2.698-4.186-3.562-6.62a24.516 24.516 0 0 1-1.426-7.416c-.078-2.403.218-4.697.878-6.82.661-2.122 1.654-3.966 2.952-5.479 1.344-1.567 2.957-2.709 4.796-3.394 1.838-.686 3.79-.873 5.804-.558 1.943.305 3.861 1.063 5.7 2.255 1.837 1.19 3.503 2.753 4.952 4.645 1.499 1.959 2.697 4.186 3.562 6.62a24.514 24.514 0 0 1 1.425 7.416c.078 2.403-.217 4.697-.878 6.82-.66 2.122-1.654 3.966-2.951 5.478-1.345 1.568-2.958 2.71-4.796 3.395-1.26.47-2.576.706-3.926.706zM17.537 1.321c-1.342 0-2.66.233-3.925.704-3.618 1.35-6.355 4.486-7.709 8.833-1.354 4.35-1.16 9.392.546 14.194 1.707 4.803 4.722 8.792 8.49 11.233 3.764 2.44 7.83 3.04 11.448 1.69 3.618-1.348 6.356-4.485 7.71-8.832 1.354-4.35 1.16-9.391-.547-14.194-1.706-4.803-4.721-8.792-8.489-11.233-2.449-1.587-5.026-2.395-7.524-2.395z"/><path fill="#16171C" d="M21.55 39.07c-1.233 0-2.473-.237-3.705-.711-1.74-.67-3.39-1.779-4.904-3.298-1.512-1.518-2.814-3.369-3.867-5.5-1.09-2.207-1.865-4.62-2.305-7.171a26.392 26.392 0 0 1-.228-7.547c.278-2.372.882-4.567 1.797-6.523.915-1.958 2.095-3.578 3.506-4.817 1.463-1.283 3.111-2.097 4.899-2.42 1.788-.323 3.609-.135 5.412.558 1.74.67 3.389 1.78 4.903 3.298 1.513 1.518 2.814 3.369 3.867 5.5 1.09 2.207 1.866 4.62 2.305 7.172.44 2.552.516 5.09.229 7.546-.278 2.372-.883 4.567-1.798 6.523-.915 1.958-2.095 3.578-3.506 4.817-1.463 1.283-3.11 2.097-4.899 2.42a9.595 9.595 0 0 1-1.706.153zM18.454 1.027c-.566 0-1.132.05-1.694.152-3.507.633-6.467 3.184-8.337 7.184-1.873 4.005-2.427 8.98-1.56 14.011.865 5.03 3.047 9.512 6.144 12.62 3.093 3.103 6.727 4.463 10.233 3.83 3.506-.633 6.467-3.185 8.337-7.184 1.872-4.005 2.427-8.981 1.56-14.012-.865-5.03-3.048-9.512-6.145-12.62-2.596-2.604-5.574-3.981-8.538-3.981z"/><path fill="#16171C" d="M20 39.225c-1.676 0-3.301-.51-4.831-1.515-1.475-.97-2.799-2.358-3.936-4.125-1.135-1.766-2.026-3.82-2.649-6.109-.644-2.368-.97-4.883-.97-7.476 0-2.592.326-5.107.97-7.475.623-2.288 1.514-4.343 2.65-6.109 1.136-1.767 2.46-3.155 3.935-4.125 1.53-1.006 3.155-1.516 4.83-1.516 1.676 0 3.302.51 4.831 1.516 1.475.97 2.8 2.358 3.936 4.125 1.135 1.766 2.027 3.82 2.649 6.109.644 2.368.97 4.883.97 7.475 0 2.593-.326 5.108-.97 7.476-.622 2.288-1.514 4.343-2.65 6.109-1.136 1.767-2.46 3.155-3.935 4.125-1.53 1.006-3.155 1.515-4.83 1.515zM20 .903c-3.27 0-6.347 1.983-8.662 5.584-2.32 3.608-3.6 8.408-3.6 13.513 0 5.106 1.279 9.905 3.6 13.514 2.316 3.6 5.392 5.584 8.662 5.584 3.27 0 6.346-1.983 8.661-5.584 2.321-3.609 3.6-8.408 3.6-13.514 0-5.105-1.279-9.905-3.6-13.513C26.346 2.887 23.27.903 20 .903z"/><path fill="#16171C" d="M17.959 39.059c-.41 0-.817-.037-1.221-.11-1.513-.273-2.894-1.041-4.103-2.285-1.165-1.196-2.122-2.78-2.846-4.708-.723-1.924-1.177-4.094-1.349-6.45-.178-2.437-.046-4.968.394-7.522.44-2.554 1.16-4.978 2.142-7.207.948-2.153 2.1-4.033 3.42-5.588 1.324-1.558 2.753-2.71 4.247-3.427 1.552-.745 3.105-.983 4.619-.71 1.512.273 2.893 1.042 4.102 2.285 1.165 1.197 2.122 2.78 2.846 4.708.723 1.924 1.177 4.094 1.349 6.45.178 2.437.046 4.968-.394 7.522-.44 2.554-1.16 4.979-2.142 7.207-.948 2.153-2.1 4.033-3.42 5.588-1.324 1.558-2.753 2.711-4.247 3.428-1.137.545-2.275.819-3.397.819zm4.08-37.956c-2.567 0-5.198 1.454-7.524 4.191-2.699 3.175-4.661 7.692-5.527 12.718-.865 5.026-.529 9.958.947 13.887 1.47 3.915 3.896 6.363 6.83 6.892 2.934.53 6.03-.92 8.72-4.084 2.698-3.175 4.66-7.692 5.526-12.718.866-5.026.53-9.958-.947-13.887-1.47-3.915-3.896-6.363-6.83-6.893a6.724 6.724 0 0 0-1.195-.107z"/><path fill="#16171C" d="M15.599 38.458a5.774 5.774 0 0 1-2.03-.362c-1.313-.49-2.415-1.446-3.274-2.844-.825-1.344-1.393-3.036-1.687-5.031-.604-4.091.008-9.001 1.723-13.826 1.714-4.824 4.327-8.988 7.356-11.725 1.477-1.334 2.974-2.257 4.45-2.742 1.535-.506 2.98-.513 4.293-.024 1.313.49 2.415 1.447 3.273 2.845.826 1.343 1.394 3.036 1.688 5.03.604 4.092-.008 9.002-1.722 13.826-1.715 4.824-4.327 8.988-7.357 11.725-1.477 1.334-2.974 2.257-4.45 2.743a7.23 7.23 0 0 1-2.263.385zm8.803-36.721c-4.932 0-10.807 6.035-13.895 14.724-1.704 4.795-2.312 9.671-1.714 13.73.596 4.04 2.315 6.783 4.84 7.724 2.526.942 5.564-.028 8.555-2.73 3.006-2.715 5.6-6.851 7.304-11.646 3.51-9.878 2.108-19.502-3.126-21.454a5.588 5.588 0 0 0-1.964-.348z"/><path fill="#16171C" d="M13.14 37.358c-.944 0-1.798-.223-2.549-.667-1.09-.645-1.896-1.717-2.391-3.185-.476-1.407-.65-3.118-.515-5.087.274-4.034 1.805-8.705 4.312-13.152 2.506-4.447 5.69-8.14 8.963-10.4 1.598-1.103 3.132-1.806 4.56-2.087 1.489-.294 2.797-.116 3.888.53 1.091.644 1.896 1.716 2.392 3.184.476 1.407.649 3.119.515 5.087-.274 4.035-1.805 8.705-4.312 13.152-2.507 4.447-5.69 8.14-8.964 10.4-1.597 1.104-3.131 1.806-4.559 2.088a6.925 6.925 0 0 1-1.34.137zM26.85 2.867c-4.385 0-10.404 4.955-14.664 12.513-2.49 4.417-4.011 9.054-4.283 13.055-.27 3.972.724 6.836 2.798 8.062.729.431 1.555.637 2.448.637 4.386 0 10.404-4.956 14.664-12.513 2.49-4.418 4.011-9.055 4.283-13.055.27-3.973-.723-6.836-2.798-8.063-.729-.43-1.555-.636-2.447-.636z"/><path fill="#16171C" d="M10.788 35.743c-1.175 0-2.146-.324-2.893-.966-.86-.74-1.367-1.852-1.505-3.307-.132-1.389.076-3.032.617-4.883 1.109-3.792 3.494-8.047 6.717-11.98 3.222-3.934 6.9-7.08 10.352-8.856 1.687-.868 3.23-1.363 4.588-1.47 1.423-.114 2.58.204 3.441.943.86.74 1.367 1.852 1.505 3.307.132 1.388-.076 3.031-.617 4.883-1.109 3.792-3.494 8.047-6.717 11.98-3.222 3.934-6.9 7.08-10.353 8.856-1.686.868-3.23 1.362-4.588 1.47a7 7 0 0 1-.547.023zM29.21 4.514c-.171 0-.347.007-.527.022-1.326.105-2.838.591-4.495 1.444-3.424 1.761-7.072 4.883-10.274 8.79-3.2 3.909-5.569 8.131-6.668 11.89-.532 1.82-.737 3.43-.608 4.785.132 1.386.608 2.44 1.417 3.135.808.695 1.905.993 3.26.885 1.325-.106 2.838-.592 4.495-1.444 3.424-1.762 7.072-4.884 10.273-8.791 3.201-3.908 5.57-8.13 6.669-11.89.532-1.82.736-3.43.608-4.784-.132-1.386-.609-2.441-1.417-3.136-.7-.602-1.618-.906-2.733-.906z"/><path fill="#16171C" d="M8.74 33.636c-1.424 0-2.509-.41-3.178-1.227-1.244-1.517-.889-4.236.998-7.657 1.865-3.379 5.007-7.057 8.847-10.358 3.84-3.3 7.923-5.831 11.495-7.125 3.617-1.31 6.293-1.196 7.536.321 1.243 1.518.888 4.237-1 7.658-1.864 3.379-5.005 7.057-8.846 10.358-3.84 3.3-7.922 5.83-11.495 7.125-1.669.604-3.138.905-4.357.905zM31.257 6.654c-1.202 0-2.634.298-4.26.887-3.542 1.283-7.594 3.795-11.41 7.074-3.814 3.279-6.933 6.93-8.782 10.28-.894 1.62-1.44 3.078-1.623 4.336-.186 1.277.014 2.284.595 2.993.58.709 1.514 1.086 2.774 1.12 1.241.033 2.739-.264 4.452-.885 3.541-1.283 7.593-3.795 11.408-7.074 3.815-3.279 6.934-6.93 8.782-10.279.894-1.62 1.44-3.08 1.624-4.336.186-1.278-.014-2.285-.595-2.994-.58-.708-1.514-1.085-2.775-1.12a7.505 7.505 0 0 0-.19-.002z"/><path fill="#16171C" d="M7.227 31.096c-1.798 0-3.027-.484-3.564-1.435-.83-1.473.116-3.86 2.665-6.72 2.51-2.817 6.282-5.782 10.623-8.35 4.341-2.566 8.734-4.43 12.37-5.248 3.694-.83 6.185-.477 7.015.996.83 1.473-.116 3.86-2.665 6.72-2.51 2.817-6.282 5.781-10.623 8.349-4.341 2.567-8.734 4.431-12.37 5.248-1.308.295-2.465.44-3.451.44zM32.768 9.223c-.967 0-2.099.145-3.38.433-3.605.81-7.966 2.662-12.28 5.213-4.314 2.552-8.06 5.494-10.548 8.288-1.204 1.35-2.045 2.59-2.5 3.683-.458 1.1-.5 1.995-.125 2.66.375.666 1.153 1.076 2.312 1.22 1.152.142 2.62.016 4.364-.377 3.605-.81 7.967-2.662 12.28-5.213 4.314-2.551 8.06-5.494 10.549-8.287 1.203-1.35 2.044-2.59 2.5-3.683.458-1.1.5-1.995.125-2.66-.375-.666-1.153-1.076-2.313-1.22a8.046 8.046 0 0 0-.984-.056z"/><path fill="#16171C" d="M6.665 28.254c-.865 0-1.618-.067-2.251-.2-1.19-.252-1.92-.734-2.17-1.435-.249-.7.008-1.55.762-2.527.698-.904 1.801-1.89 3.278-2.935 3.018-2.133 7.274-4.275 11.984-6.03 4.71-1.757 9.315-2.918 12.965-3.27 1.786-.173 3.25-.143 4.353.09 1.19.25 1.92.734 2.17 1.434.248.7-.008 1.55-.762 2.527-.699.904-1.801 1.891-3.278 2.935-3.018 2.133-7.274 4.275-11.984 6.031-4.71 1.756-9.315 2.917-12.965 3.27a22 22 0 0 1-2.102.11zM33.33 12.131c-.626 0-1.315.036-2.061.108-3.62.35-8.192 1.503-12.872 3.248-4.681 1.745-8.907 3.871-11.9 5.987-2.886 2.04-4.307 3.867-3.9 5.014.408 1.146 2.644 1.61 6.135 1.273 3.62-.35 8.19-1.503 12.872-3.248 4.68-1.745 8.906-3.871 11.899-5.986 2.886-2.04 4.307-3.868 3.9-5.015-.32-.901-1.771-1.38-4.073-1.38z"/><path fill="#16171C" d="M8.466 25.31c-.352 0-.696-.005-1.03-.013-2.632-.072-5.822-.465-6.075-1.93-.252-1.466 2.614-2.953 5.063-3.942 3.368-1.36 7.94-2.6 12.876-3.491 4.935-.891 9.646-1.328 13.264-1.23 2.632.071 5.822.464 6.074 1.93.253 1.465-2.614 2.952-5.063 3.941-3.368 1.36-7.94 2.6-12.875 3.492-4.479.808-8.773 1.243-12.234 1.243zm23.066-10.17c-3.435 0-7.702.431-12.156 1.236-4.907.886-9.45 2.117-12.79 3.467-1.615.651-2.857 1.294-3.691 1.908-.794.585-1.175 1.116-1.102 1.537.072.421.608.788 1.549 1.059.989.285 2.37.454 4.105.5.33.01.672.014 1.021.014 3.435 0 7.702-.432 12.156-1.236 4.907-.886 9.45-2.118 12.79-3.467 1.615-.652 2.856-1.294 3.69-1.909.794-.584 1.175-1.116 1.103-1.537-.073-.421-.608-.787-1.55-1.059-.988-.285-2.37-.453-4.104-.5a37.63 37.63 0 0 0-1.021-.014z"/><path fill="#16171C" d="M20 23.072c-5.009 0-9.72-.294-13.265-.828-1.733-.26-3.097-.565-4.054-.906-1.103-.392-1.639-.83-1.639-1.338 0-.508.536-.946 1.639-1.338.957-.34 2.32-.645 4.054-.906 3.545-.534 8.256-.827 13.265-.827 5.008 0 9.719.294 13.264.827 1.733.26 3.098.565 4.055.906 1.102.392 1.638.83 1.638 1.338 0 .508-.536.946-1.638 1.338-.957.34-2.322.645-4.055.906-3.545.534-8.256.827-13.264.827zm0-5.63c-4.985 0-9.67.291-13.192.821C2.652 18.89 1.543 19.65 1.543 20c0 .35 1.109 1.111 5.265 1.737 3.522.53 8.207.822 13.192.822 4.985 0 9.67-.292 13.191-.822 4.156-.626 5.265-1.386 5.265-1.737 0-.35-1.109-1.111-5.265-1.737-3.522-.53-8.206-.822-13.191-.822z"/><path stroke="#16171C" stroke-miterlimit="10" stroke-width=".5" d="M33.228 33.549c7.305-7.483 7.305-19.615 0-27.098-7.306-7.483-19.15-7.483-26.456 0-7.305 7.483-7.305 19.615 0 27.098 7.306 7.482 19.15 7.482 26.456 0z"/><path stroke="#16171C" stroke-miterlimit="10" stroke-width=".5" d="M34.33 32.316c6.263-7.645 4.925-19.357-2.99-26.16C23.426-.645 11.933.039 5.67 7.685-.595 15.329.743 27.04 8.658 33.844c7.914 6.802 19.408 6.118 25.67-1.528z"/><path stroke="#16171C" stroke-miterlimit="10" stroke-width=".5" d="M32.024 34.678c7.015-6.028 7.317-17.487.676-25.594C26.06.978 14.99-.706 7.975 5.322.961 11.35.66 22.809 7.3 30.915c6.64 8.107 17.71 9.791 24.724 3.763z"/><path stroke="#16171C" stroke-miterlimit="10" stroke-width=".5" d="M29.353 36.594c7.421-4.388 9.25-15.375 4.084-24.54C28.27 2.89 18.067-.982 10.647 3.406c-7.421 4.389-9.25 15.376-4.084 24.54 5.166 9.165 15.37 13.037 22.79 8.648z"/><path stroke="#16171C" stroke-miterlimit="10" stroke-width=".5" d="M26.398 38.006c7.5-2.796 10.715-13.124 7.182-23.068C30.046 4.993 21.102-.802 13.602 1.995 6.102 4.79 2.886 15.119 6.42 25.063c3.534 9.944 12.478 15.739 19.978 12.943z"/><path stroke="#16171C" stroke-miterlimit="10" stroke-width=".5" d="M23.248 38.87c7.282-1.315 11.73-10.83 9.936-21.251C31.39 7.198 24.033-.185 16.751 1.13 9.47 2.445 5.021 11.96 6.816 22.381c1.794 10.422 9.15 17.804 16.432 16.489z"/><path stroke="#16171C" stroke-miterlimit="10" stroke-width=".5" d="M20 39.16c6.806 0 12.323-8.578 12.323-19.16S26.806.839 20 .839 7.676 9.418 7.676 19.999c0 10.583 5.518 19.162 12.324 19.162z"/><path stroke="#16171C" stroke-miterlimit="10" stroke-width=".5" d="M31.089 22.003c1.794-10.422-1.717-19.767-7.84-20.873C17.123.024 10.704 7.576 8.91 17.997c-1.794 10.422 1.716 19.767 7.84 20.873 6.125 1.106 12.543-6.446 14.338-16.867z"/><path stroke="#16171C" stroke-miterlimit="10" stroke-width=".5" d="M29.58 23.572c3.534-9.945 2.11-19.605-3.182-21.578-5.291-1.972-12.445 4.49-15.979 14.434-3.534 9.944-2.109 19.604 3.183 21.577 5.291 1.973 12.445-4.49 15.979-14.434z"/><path stroke="#16171C" stroke-miterlimit="10" stroke-width=".5" d="M27.909 24.677c5.165-9.165 5.812-18.688 1.445-21.271C24.986.823 17.257 6.158 12.092 15.323c-5.166 9.164-5.813 18.688-1.445 21.27 4.367 2.583 12.096-2.752 17.262-11.917z"/><path stroke="#16171C" stroke-miterlimit="10" stroke-width=".5" d="M26.18 25.311c6.641-8.106 9.258-17.056 5.844-19.99-3.413-2.933-11.564 1.26-18.205 9.367-6.64 8.106-9.257 17.056-5.844 19.99 3.414 2.933 11.564-1.26 18.205-9.367z"/><path stroke="#16171C" stroke-miterlimit="10" stroke-width=".5" d="M24.502 25.496c7.914-6.802 12.315-14.777 9.828-17.812-2.486-3.035-10.918.018-18.832 6.82C7.583 21.308 3.183 29.283 5.67 32.318c2.486 3.035 10.918-.019 18.832-6.821z"/><path stroke="#16171C" stroke-miterlimit="10" stroke-width=".5" d="M22.97 25.269c8.947-5.291 14.87-11.94 13.23-14.85-1.64-2.91-10.223-.98-19.17 4.312C8.083 20.022 2.159 26.67 3.8 29.58c1.64 2.91 10.223.98 19.17-4.312z"/><path stroke="#16171C" stroke-miterlimit="10" stroke-width=".5" d="M21.667 24.693c9.709-3.62 16.832-8.655 15.911-11.247-.92-2.591-9.538-1.759-19.246 1.86C8.624 18.927 1.5 23.962 2.421 26.554c.921 2.592 9.538 1.76 19.246-1.86z"/><path stroke="#16171C" stroke-miterlimit="10" stroke-width=".5" d="M20.662 23.845c10.175-1.838 18.126-5.049 17.76-7.173-.365-2.124-8.91-2.356-19.084-.518-10.174 1.837-18.126 5.049-17.76 7.173.365 2.123 8.91 2.355 19.084.518z"/><path stroke="#16171C" stroke-miterlimit="10" stroke-width=".5" d="M20 22.815c10.331 0 18.707-1.26 18.707-2.815 0-1.554-8.376-2.815-18.707-2.815-10.332 0-18.707 1.26-18.707 2.815S9.668 22.815 20 22.815z"/></g><defs><clipPath id="a"><path fill="#fff" d="M0 0h40v40H0z"/></clipPath></defs></svg>