<svg xmlns="http://www.w3.org/2000/svg" width="170" height="41" fill="none"><path fill="#000" d="M54.405 29V11.546h11.182v2.65h-8.02v4.739h7.253v2.65h-7.253V29h-3.162zm17.011-17.454V29h-3.085V11.546h3.085zm6.94 17.718c-.83 0-1.576-.148-2.241-.443a3.658 3.658 0 0 1-1.569-1.33c-.38-.585-.57-1.306-.57-2.164 0-.739.136-1.35.409-1.833a3.157 3.157 0 0 1 1.116-1.159 5.633 5.633 0 0 1 1.594-.656 12.966 12.966 0 0 1 1.85-.332c.766-.08 1.389-.151 1.866-.213.477-.069.824-.17 1.04-.307.221-.142.332-.361.332-.657v-.05c0-.643-.19-1.14-.571-1.492-.38-.352-.93-.529-1.645-.529-.756 0-1.355.165-1.798.495-.438.33-.733.718-.887 1.167l-2.88-.409c.227-.795.602-1.46 1.125-1.994a4.895 4.895 0 0 1 1.917-1.21c.756-.273 1.591-.41 2.506-.41.63 0 1.258.075 1.883.222a5.3 5.3 0 0 1 1.713.733c.518.335.932.793 1.245 1.372.318.58.477 1.304.477 2.174V29h-2.966v-1.798H82.2a3.768 3.768 0 0 1-.793 1.022c-.335.313-.758.566-1.27.759-.505.188-1.099.281-1.78.281zm.801-2.267c.62 0 1.157-.122 1.611-.366a2.71 2.71 0 0 0 1.048-.989c.25-.409.375-.855.375-1.338v-1.543c-.096.08-.261.154-.494.222a7.01 7.01 0 0 1-.767.179c-.284.051-.565.097-.844.136l-.724.103c-.46.062-.872.164-1.236.306s-.65.341-.86.597c-.211.25-.316.574-.316.972 0 .568.207.997.622 1.287.415.29.943.434 1.585.434zm19.56-7.628-2.813.307a2.262 2.262 0 0 0-.417-.801 2.074 2.074 0 0 0-.784-.605c-.33-.154-.733-.23-1.21-.23-.642 0-1.182.139-1.62.417-.432.279-.645.64-.639 1.083-.006.38.134.69.418.929.29.238.767.434 1.431.588l2.233.477c1.239.267 2.16.69 2.762 1.27.608.58.915 1.338.92 2.276a3.557 3.557 0 0 1-.724 2.181c-.472.625-1.128 1.114-1.969 1.466-.84.352-1.807.529-2.898.529-1.602 0-2.892-.335-3.869-1.006-.977-.676-1.56-1.616-1.747-2.821l3.008-.29c.137.591.426 1.037.87 1.338.443.301 1.02.452 1.73.452.733 0 1.32-.15 1.764-.452.449-.3.673-.673.673-1.116 0-.375-.145-.685-.434-.93-.284-.244-.728-.431-1.33-.562l-2.233-.468c-1.255-.262-2.184-.702-2.787-1.322-.602-.625-.9-1.414-.895-2.369-.005-.807.213-1.506.657-2.096.448-.597 1.07-1.057 1.866-1.381.801-.33 1.724-.494 2.77-.494 1.534 0 2.741.326 3.622.98.886.653 1.435 1.537 1.645 2.65zm5.91 1.96V29h-3.085V11.546h3.017v6.588h.154a3.788 3.788 0 0 1 1.423-1.748c.648-.431 1.472-.647 2.472-.647.909 0 1.701.19 2.377.57.677.381 1.199.938 1.569 1.671.375.733.562 1.628.562 2.685V29h-3.085v-7.858c0-.88-.227-1.565-.682-2.054-.449-.494-1.079-.741-1.892-.741-.545 0-1.034.119-1.466.357a2.512 2.512 0 0 0-1.006 1.015c-.238.443-.358.98-.358 1.61zm14.719-9.784V29h-3.085V11.546h3.085zm6.94 17.72c-.83 0-1.577-.149-2.242-.444a3.662 3.662 0 0 1-1.568-1.33c-.38-.585-.571-1.306-.571-2.164 0-.739.137-1.35.409-1.833a3.167 3.167 0 0 1 1.117-1.159 5.626 5.626 0 0 1 1.594-.656 12.953 12.953 0 0 1 1.849-.332c.767-.08 1.389-.151 1.866-.213.478-.069.824-.17 1.04-.307.222-.142.333-.361.333-.657v-.05c0-.643-.191-1.14-.571-1.492-.381-.352-.929-.529-1.645-.529-.756 0-1.355.165-1.799.495-.437.33-.733.718-.886 1.167l-2.881-.409c.228-.795.603-1.46 1.125-1.994a4.895 4.895 0 0 1 1.918-1.21c.756-.273 1.591-.41 2.506-.41.63 0 1.258.075 1.883.222a5.3 5.3 0 0 1 1.713.733 3.69 3.69 0 0 1 1.245 1.372c.318.58.477 1.304.477 2.174V29h-2.966v-1.798h-.102a3.777 3.777 0 0 1-.793 1.022c-.335.313-.759.566-1.27.759-.506.188-1.099.281-1.781.281zm.801-2.268c.619 0 1.156-.122 1.611-.366a2.71 2.71 0 0 0 1.048-.989c.25-.409.375-.855.375-1.338v-1.543c-.096.08-.261.154-.494.222a6.997 6.997 0 0 1-.767.179c-.284.051-.566.097-.844.136l-.724.103a5.368 5.368 0 0 0-1.236.306 2.047 2.047 0 0 0-.861.597c-.21.25-.315.574-.315.972 0 .568.207.997.622 1.287.415.29.943.434 1.585.434zm12.298-5.668V29H136.3V15.91h2.949v2.224h.153a3.743 3.743 0 0 1 1.441-1.748c.664-.431 1.485-.647 2.463-.647.903 0 1.69.193 2.361.58.676.386 1.198.945 1.568 1.678.375.733.559 1.622.554 2.668V29h-3.086v-7.858c0-.875-.227-1.56-.681-2.054-.449-.494-1.071-.741-1.867-.741-.54 0-1.02.119-1.44.357a2.476 2.476 0 0 0-.98 1.015c-.233.443-.35.98-.35 1.61zm17.336 7.927c-1.313 0-2.446-.273-3.401-.819a5.537 5.537 0 0 1-2.19-2.335c-.512-1.011-.767-2.201-.767-3.57 0-1.347.255-2.53.767-3.546.517-1.023 1.238-1.818 2.164-2.387.927-.573 2.015-.86 3.265-.86.806 0 1.568.13 2.284.392a5.166 5.166 0 0 1 1.909 1.193c.557.54.994 1.227 1.312 2.062.318.83.478 1.819.478 2.966v.946h-10.731v-2.08h7.773c-.006-.59-.133-1.116-.383-1.576a2.79 2.79 0 0 0-1.049-1.1c-.443-.266-.96-.4-1.551-.4-.63 0-1.184.154-1.662.46a3.17 3.17 0 0 0-1.116 1.194 3.43 3.43 0 0 0-.401 1.61v1.816c0 .761.139 1.414.418 1.96.278.54.667.954 1.167 1.244.5.284 1.086.426 1.756.426.449 0 .855-.062 1.219-.187a2.7 2.7 0 0 0 .946-.571c.267-.25.469-.56.605-.93l2.881.325a4.497 4.497 0 0 1-1.04 1.994c-.506.563-1.153 1-1.943 1.313-.79.306-1.693.46-2.71.46z"/><path fill="#1B4328" fill-rule="evenodd" d="M20.684 40.138c11.045 0 20-8.955 20-20 0-11.046-8.955-20-20-20-11.046 0-20 8.954-20 20 0 11.045 8.954 20 20 20zm6.239-30.683c.304-1.08-.743-1.717-1.7-1.036l-13.346 9.508c-1.037.739-.874 2.21.245 2.21h3.514v-.027h6.85l-5.581 1.97-2.46 8.74c-.304 1.08.742 1.718 1.699 1.036l13.347-9.508c1.036-.738.873-2.21-.245-2.21h-5.33l3.007-10.683z" clip-rule="evenodd"/></svg>