<svg xmlns="http://www.w3.org/2000/svg" width="40" height="40" fill="none"><path fill="#fff" d="M25.513 21.91a8.896 8.896 0 0 0 3.4-7.002h2.546a11.441 11.441 0 0 1-4.663 9.225l3.219 5.574a2.546 2.546 0 0 1-.932 3.478l-4.49-7.776a11.42 11.42 0 0 1-4.593.957 11.42 11.42 0 0 1-4.592-.957l-4.49 7.776a2.546 2.546 0 0 1-.932-3.478L16.43 18.54a5.095 5.095 0 0 1 2.296-8.565V7.269h2.546v2.707a5.095 5.095 0 0 1 2.296 8.565l1.944 3.369zm-2.203 1.276-1.945-3.37a5.099 5.099 0 0 1-2.727 0l-1.946 3.37a8.9 8.9 0 0 0 3.31.634 8.904 8.904 0 0 0 3.308-.634zM20 17.454a2.546 2.546 0 1 0 0-5.093 2.546 2.546 0 0 0 0 5.093z"/></svg>