<svg xmlns="http://www.w3.org/2000/svg" width="40" height="40" fill="none"><path fill="#fff" d="M29.39 23.95a10.187 10.187 0 0 0-14.444-12.795l-1.263-2.211a12.726 12.726 0 0 1 12.683.03c5.716 3.3 7.906 10.366 5.241 16.258l1.709.986-5.303 2.819-.21-6.002 1.587.915zm-18.78-7.9a10.187 10.187 0 0 0 14.445 12.794l1.262 2.212a12.727 12.727 0 0 1-12.683-.03c-5.716-3.3-7.906-10.367-5.241-16.259l-1.71-.984 5.303-2.819.21 6.002-1.587-.916h.002zm4.934 6.496h7.002a.636.636 0 0 0 0-1.273h-5.092a3.183 3.183 0 1 1 0-6.366h1.273v-1.273h2.546v1.273h3.183v2.546h-7.002a.637.637 0 0 0 0 1.274h5.092a3.183 3.183 0 0 1 0 6.365h-1.273v1.273h-2.546v-1.273h-3.183v-2.546z"/></svg>