<svg xmlns="http://www.w3.org/2000/svg" width="24" height="24" fill="none"><path fill="#4A4F5C" d="M18.875 15.376v2.702a.764.764 0 0 1-.71.762 12.45 12.45 0 0 1-.818.035c-6.75 0-12.222-5.472-12.222-12.222 0-.211.011-.484.035-.818a.764.764 0 0 1 .763-.71h2.7a.382.382 0 0 1 .381.344c.018.175.034.315.049.421.152 1.06.463 2.09.923 3.057a.348.348 0 0 1-.113.433l-1.648 1.178a9.966 9.966 0 0 0 5.228 5.228l1.176-1.646a.353.353 0 0 1 .438-.113 10.613 10.613 0 0 0 3.476.969.382.382 0 0 1 .343.38h-.001z"/></svg>